<?xml version="1.0" encoding="UTF-8" standalone="no"?>
<!-- Created with Inkscape (http://www.inkscape.org/) -->

<svg
   xmlns:dc="http://purl.org/dc/elements/1.1/"
   xmlns:cc="http://creativecommons.org/ns#"
   xmlns:rdf="http://www.w3.org/1999/02/22-rdf-syntax-ns#"
   xmlns:svg="http://www.w3.org/2000/svg"
   xmlns="http://www.w3.org/2000/svg"
   xmlns:sodipodi="http://sodipodi.sourceforge.net/DTD/sodipodi-0.dtd"
   xmlns:inkscape="http://www.inkscape.org/namespaces/inkscape"
   version="1.1"
   id="svg10"
   xml:space="preserve"
   width="74mm"
   height="105mm"
   viewBox="0 0 279.68504 396.85037"
   sodipodi:docname="synkino.svg"
   inkscape:version="0.92.5 (2060ec1f9f, 2020-04-08)"><metadata
     id="metadata16"><rdf:RDF><cc:Work
         rdf:about=""><dc:format>image/svg+xml</dc:format><dc:type
           rdf:resource="http://purl.org/dc/dcmitype/StillImage" /><dc:title></dc:title></cc:Work></rdf:RDF></metadata><defs
     id="defs14"><clipPath
       clipPathUnits="userSpaceOnUse"
       id="clipPath36"><path
         d="M 165,165 H 9752 V 13868 H 165 Z"
         id="path34"
         inkscape:connector-curvature="0"
         style="clip-rule:evenodd" /></clipPath><clipPath
       clipPathUnits="userSpaceOnUse"
       id="clipPath54"><path
         d="M 165,165 H 9752 V 13868 H 165 Z"
         id="path52"
         inkscape:connector-curvature="0"
         style="clip-rule:evenodd" /></clipPath><clipPath
       clipPathUnits="userSpaceOnUse"
       id="clipPath60"><path
         d="M 3365,4662 H 6552 V 9134 H 3365 Z"
         id="path58"
         inkscape:connector-curvature="0"
         style="clip-rule:evenodd" /></clipPath></defs><sodipodi:namedview
     pagecolor="#ffffff"
     bordercolor="#666666"
     borderopacity="1"
     objecttolerance="10"
     gridtolerance="10"
     guidetolerance="10"
     inkscape:pageopacity="0"
     inkscape:pageshadow="2"
     inkscape:window-width="2560"
     inkscape:window-height="1376"
     id="namedview12"
     showgrid="false"
     inkscape:object-paths="false"
     showguides="true"
     inkscape:guide-bbox="true"
     inkscape:snap-object-midpoints="true"
     inkscape:snap-smooth-nodes="true"
     inkscape:document-units="mm"
     inkscape:pagecheckerboard="false"
     units="mm"
     inkscape:zoom="1.4939939"
     inkscape:cx="282.67465"
     inkscape:cy="331.91513"
     inkscape:window-x="0"
     inkscape:window-y="27"
     inkscape:window-maximized="1"
     inkscape:current-layer="g20" /><g
     id="g18"
     inkscape:groupmode="layer"
     inkscape:label="synkino3c"
     transform="matrix(1.3333333,0,0,-1.3333333,0,396.85033)"><g
       id="g20"
       transform="matrix(0.06,0,0,-0.06,0,842)"
       style="display:inline"><g
         id="g4732"
         transform="translate(19.6297,-28.322071)"><path
           inkscape:connector-curvature="0"
           id="path82"
           d="m 289.39594,9547.4058 c -41.97363,0 -76.001,34.0273 -76.001,76.001 0,41.9736 34.02737,76.001 76.001,76.001 41.97362,0 76.001,-34.0274 76.001,-76.001 0,-41.9737 -34.02738,-76.001 -76.001,-76.001 z m 2878.00296,0 c -41.9737,0 -76.001,34.0273 -76.001,76.001 0,41.9736 34.0273,76.001 76.001,76.001 41.9735,0 76.0009,-34.0274 76.0009,-76.001 0,-41.9737 -34.0274,-76.001 -76.0009,-76.001 z M 289.39594,13086.419 c -41.97363,0 -76.001,34.028 -76.001,76.001 0,41.974 34.02737,76.001 76.001,76.001 41.97362,0 76.001,-34.027 76.001,-76.001 0,-41.973 -34.02738,-76.001 -76.001,-76.001 z m 2878.00296,0 c -41.9737,0 -76.001,34.028 -76.001,76.001 0,41.974 34.0273,76.001 76.001,76.001 41.9735,0 76.0009,-34.027 76.0009,-76.001 0,-41.973 -34.0274,-76.001 -76.0009,-76.001 z"
           style="fill:none;stroke:#000000;stroke-width:16.66666794;stroke-linecap:round;stroke-linejoin:round;stroke-miterlimit:10;stroke-dasharray:none;stroke-opacity:1" /><path
           inkscape:connector-curvature="0"
           d="m 289.40181,9473.4173 -24,2 -22,6 -22,9 -20,12 -18,15 -15,18 -13,20 -9,22 -5,23 -2,23 m 3027.99999,-150 H 289.40181 m 3027.99999,150 -2,-23 -6,-23 -9,-22 -12,-20 -15,-18 -18,-15 -20,-12 -22,-9 -23,-6 -23,-2 m 150,3688.9997 V 9623.4173 m -150,3688.9997 23,-2 23,-5 22,-9 20,-13 18,-15 15,-18 12,-20 9,-22 6,-22 2,-24 m -3027.99999,150 H 3167.4018 m -3027.99999,-150 2,24 5,22 9,22 13,20 15,18 18,15 20,13 22,9 22,5 24,2 m -150,-3688.9997 v 3538.9997"
           style="fill:none;stroke:#000000;stroke-width:16.66666794;stroke-linecap:round;stroke-linejoin:round;stroke-miterlimit:10;stroke-dasharray:none;stroke-opacity:1"
           id="path80" /><path
           inkscape:connector-curvature="0"
           id="path4696"
           d="m 289.39594,13389.276 a 149.99412,149.99686 0 0 0 -150,150 149.99412,149.99686 0 0 0 150,150 149.99412,149.99686 0 0 0 150,-150 149.99412,149.99686 0 0 0 -150,-150 z m 0,73.999 c 41.97362,0 76.001,34.027 76.001,76.001 0,41.973 -34.02738,76.001 -76.001,76.001 -41.97363,0 -76.001,-34.028 -76.001,-76.001 0,-41.974 34.02737,-76.001 76.001,-76.001 z"
           style="display:inline;fill:none;stroke:#000000;stroke-width:16.66666794;stroke-miterlimit:10;stroke-dasharray:none;stroke-opacity:1" /><path
           inkscape:connector-curvature="0"
           id="path4696-6"
           d="m 664.26231,13389.276 a 149.99413,149.99687 0 0 0 -150,150 149.99413,149.99687 0 0 0 150,150 149.99413,149.99687 0 0 0 150,-150 149.99413,149.99687 0 0 0 -150,-150 z m 0,73.999 c 41.9736,0 76.001,34.027 76.001,76.001 0,41.973 -34.0274,76.001 -76.001,76.001 -41.9736,0 -76.001,-34.028 -76.001,-76.001 0,-41.974 34.0274,-76.001 76.001,-76.001 z"
           style="display:inline;fill:none;stroke:#000000;stroke-width:16.66666794;stroke-miterlimit:10;stroke-dasharray:none;stroke-opacity:1" /><path
           inkscape:connector-curvature="0"
           id="path4696-7"
           d="m 1039.1289,13389.276 a 149.99413,149.99687 0 0 0 -149.99999,150 149.99413,149.99687 0 0 0 149.99999,150 149.99413,149.99687 0 0 0 150,-150 149.99413,149.99687 0 0 0 -150,-150 z m 0,73.999 c 41.9736,0 76.001,34.027 76.001,76.001 0,41.973 -34.0274,76.001 -76.001,76.001 -41.97359,0 -76.00099,-34.028 -76.00099,-76.001 0,-41.974 34.0274,-76.001 76.00099,-76.001 z"
           style="display:inline;fill:none;stroke:#000000;stroke-width:16.66666794;stroke-miterlimit:10;stroke-dasharray:none;stroke-opacity:1" /><path
           inkscape:connector-curvature="0"
           id="path4696-5"
           d="m 1413.9952,13389.276 a 149.99413,149.99687 0 0 0 -150,150 149.99413,149.99687 0 0 0 150,150 149.99413,149.99687 0 0 0 150,-150 149.99413,149.99687 0 0 0 -150,-150 z m 0,73.999 c 41.9736,0 76.001,34.027 76.001,76.001 0,41.973 -34.0274,76.001 -76.001,76.001 -41.9736,0 -76.001,-34.028 -76.001,-76.001 0,-41.974 34.0274,-76.001 76.001,-76.001 z"
           style="display:inline;fill:none;stroke:#000000;stroke-width:16.66666794;stroke-miterlimit:10;stroke-dasharray:none;stroke-opacity:1" /></g></g></g></svg>